<svg xmlns="http://www.w3.org/2000/svg" viewBox="0 0 367.69 107.25"><defs><style>.cls-1{fill:none;stroke:#303030;;stroke-miterlimit:10;stroke-width:6px;}</style></defs><title>Risorsa 3</title><g id="Livello_2" data-name="Livello 2"><g id="Livello_1-2" data-name="Livello 1"><path class="cls-1" d="M40.9,3C61.2,3,80.22,13.3,80.22,36.89v34c0,23.31-19,33.46-39.32,33.32H3V3Zm.85,77.22c8.73,0,12.73-4.43,12.73-11V37.61c0-6.58-4.15-10.73-12.73-10.73h-13V80.22Z"/><path class="cls-1" d="M177.18,104.25H149.72l-6.58-20.31h-27l-6.29,20.31H82.36L117.69,3H141ZM137,61.2l-7-29.6h-.71l-7.44,29.6Z"/><path class="cls-1" d="M214.35,72.07h-4.57v32.18H183.89V3h40.47c20.88,0,37,9.58,37.61,33.32,0,18.73-7.58,29.32-19.87,33.18l27.6,34.75H237.81Zm10.44-22c16.16,0,16.16-23.17,0-23.17h-15V50.05Z"/><path class="cls-1" d="M329.47,3h31.89l-40,48.91,39.9,52.34H328.75L302.87,68.07,302,69.21v35H276.27V3H302V40.47Z"/></g></g></svg>