<svg xmlns="http://www.w3.org/2000/svg" xmlns:xlink="http://www.w3.org/1999/xlink" viewBox="0 0 924.9 708.27"><defs><style>.cls-1{fill:url(#Sfumatura_senza_nome_79);}.cls-2{fill:url(#Sfumatura_senza_nome_175);}.cls-3{fill:url(#Sfumatura_senza_nome_22);}.cls-4{fill:url(#Sfumatura_senza_nome_24);}.cls-5{fill:url(#Sfumatura_senza_nome_59);}.cls-6{fill:url(#Sfumatura_senza_nome_67);}</style><linearGradient id="Sfumatura_senza_nome_79" x1="592.87" y1="421.78" x2="723.7" y2="346.24" gradientUnits="userSpaceOnUse"><stop offset="0.17" stop-color="#ff7300"/><stop offset="1" stop-color="#df313e"/></linearGradient><linearGradient id="Sfumatura_senza_nome_175" x1="810.11" y1="537.27" x2="235.37" y2="537.27" gradientUnits="userSpaceOnUse"><stop offset="0.22" stop-color="#f98004"/><stop offset="0.22" stop-color="#f98004"/><stop offset="0.34" stop-color="#ef611b"/><stop offset="0.47" stop-color="#e74a2c"/><stop offset="0.58" stop-color="#e33d36"/><stop offset="0.69" stop-color="#e13839"/></linearGradient><linearGradient id="Sfumatura_senza_nome_22" y1="150.07" x2="446.83" y2="150.07" gradientUnits="userSpaceOnUse"><stop offset="0.1" stop-color="#df313e"/><stop offset="0.76" stop-color="#fc6c07"/></linearGradient><linearGradient id="Sfumatura_senza_nome_24" x1="446.83" y1="87.15" x2="924.9" y2="87.15" gradientUnits="userSpaceOnUse"><stop offset="0.27" stop-color="#ff7300"/><stop offset="0.81" stop-color="#df313e"/></linearGradient><linearGradient id="Sfumatura_senza_nome_59" x1="443.89" y1="345.94" x2="311.98" y2="117.47" gradientUnits="userSpaceOnUse"><stop offset="0.15" stop-color="#ff7000"/><stop offset="0.85" stop-color="#e1343b"/></linearGradient><linearGradient id="Sfumatura_senza_nome_67" x1="267.3" y1="434.05" x2="267.3" y2="708.27" gradientUnits="userSpaceOnUse"><stop offset="0.61" stop-color="#ff7000"/><stop offset="1" stop-color="#df313e"/></linearGradient></defs><title>Risorsa 1</title><g id="Livello_2" data-name="Livello 2"><g id="Livello_1-2" data-name="Livello 1"><path class="cls-1" d="M800.56,609A445.21,445.21,0,0,0,582.66,404.1L489.54,174.29H624.42Z"/><path class="cls-2" d="M771.07,702.64a62.45,62.45,0,0,1-80.34-32c-1-2.42-2-4.84-3-7.24a377.51,377.51,0,0,0-310.09-227.5q-18.63-1.85-37.77-1.86a378.86,378.86,0,0,0-104.5,14.6l9.28-21.79,14.89-34.95c2.86-1,5.73-2,8.61-2.9l2.84-.91q5.53-1.77,11.13-3.38l4.23-1.21q2.88-.79,5.77-1.56l3.31-.86,3.84-1,2.18-.53,3.25-.77c1.54-.36,3.08-.71,4.63-1.05q1.85-.42,3.72-.81c1-.22,2.07-.44,3.1-.64l1.25-.26,2.3-.46,3.38-.65.56-.1c1.13-.22,2.26-.42,3.4-.62l2.43-.43,3.24-.55.51-.08c1.31-.22,2.62-.43,3.94-.63s2.84-.44,4.27-.64q1.69-.26,3.39-.48c1.36-.19,2.73-.37,4.09-.54s2.83-.36,4.24-.52l.76-.09,3.4-.38,1.27-.14,3.34-.33,1.4-.14,4.25-.38c1.56-.13,3.13-.26,4.7-.37,1.13-.09,2.26-.17,3.4-.24l2-.13,4.08-.23,2.61-.13,2.67-.12c1.39-.06,2.78-.11,4.18-.15l2.79-.08,2.26,0c.55,0,1.09,0,1.64,0q3.81-.08,7.64-.07h1.33a446.33,446.33,0,0,1,52.39,3.22A440.2,440.2,0,0,1,582.66,404.1,445.21,445.21,0,0,1,800.56,609l5,12.24A62.49,62.49,0,0,1,771.07,702.64Z"/><path class="cls-3" d="M37.34,127.76A191.49,191.49,0,0,0,0,241.67q0,4.62.22,9.18a278.46,278.46,0,0,1,192.16-76.56H352.25l9.88-23.21L389.3,87.31c.28-.66.57-1.31.88-2s.54-1.14.83-1.7q.21-.44.45-.87a57.93,57.93,0,0,1,4.61-7.48c.4-.59.84-1.17,1.29-1.74.87-1.14,1.78-2.24,2.75-3.31.47-.54.95-1.06,1.45-1.58s.84-.87,1.26-1.29c.17-.18.35-.35.53-.51.35-.35.7-.68,1.06-1l.39-.36c.45-.42.9-.82,1.37-1.2a.13.13,0,0,1,.07-.06c.46-.4.93-.78,1.4-1.16,1.38-1.11,2.8-2.16,4.27-3.13.35-.24.7-.48,1-.7.56-.37,1.13-.72,1.7-1.06l.09-.05c.55-.33,1.1-.65,1.66-1l.26-.14c.58-.32,1.17-.63,1.76-.93l.17-.09c.56-.29,1.13-.56,1.71-.83s1.28-.59,1.92-.86,1.28-.54,1.92-.78l0,0q1-.37,1.95-.72t1.8-.6l.33-.1c.46-.15.92-.29,1.38-.41l.44-.13.65-.17a3.6,3.6,0,0,1,.44-.12c1-.26,2-.5,3-.71l.25,0c.61-.12,1.22-.24,1.83-.34s1.39-.23,2.08-.32,1.11-.15,1.66-.21l.17,0,.8-.07c.42,0,.85-.08,1.28-.11l.67-.05c.58,0,1.16-.06,1.75-.08s1.41,0,2.12,0H192.38A192.09,192.09,0,0,0,37.34,127.76Z"/><path class="cls-4" d="M659.8,49.29h-213a62.22,62.22,0,0,1,24.47,5l.82.35a62.42,62.42,0,0,1,33,82l-5.9,13.84-9.9,23.25.22.55H625.3A343.45,343.45,0,0,0,766.87,144,346,346,0,0,0,924.9,0,732.89,732.89,0,0,1,659.8,49.29Z"/><path class="cls-5" d="M489.45,65.69a62.39,62.39,0,0,0-17.33-11l-.82-.35a62.22,62.22,0,0,0-24.47-5c-.71,0-1.42,0-2.12,0s-1.17,0-1.75.08l-.67.05c-.43,0-.86.06-1.28.11l-.8.07-.17,0c-.55.06-1.11.13-1.66.21s-1.39.2-2.08.32-1.22.22-1.83.34l-.25,0c-1,.21-2,.45-3,.71a3.6,3.6,0,0,0-.44.12l-.65.17-.44.13c-.46.12-.92.26-1.38.41l-.33.1q-.9.28-1.8.6t-1.95.72l0,0q-1,.38-1.92.78c-.64.27-1.28.56-1.92.86L418.6,56l-.17.09c-.59.3-1.18.61-1.76.93l-.26.14c-.56.31-1.11.63-1.66,1l-.09.05c-.57.35-1.14.7-1.7,1.06-.35.22-.7.46-1,.7-1.47,1-2.89,2-4.27,3.13-.47.38-.94.76-1.4,1.16a.13.13,0,0,0-.07.06c-.46.39-.92.79-1.37,1.2l-.39.36-1.06,1c-.18.16-.36.33-.53.51-.42.42-.85.85-1.26,1.29s-1,1-1.45,1.58q-1.42,1.6-2.75,3.31-.66.85-1.29,1.74a62.72,62.72,0,0,0-4.61,7.48q-.24.43-.45.87c-.29.56-.57,1.13-.83,1.7s-.6,1.3-.88,2l-27.17,63.77-9.88,23.21-16.77,39.36L259.54,391.91c2.86-1,5.73-2,8.61-2.9l2.84-.91q5.53-1.77,11.13-3.38l4.23-1.21q2.88-.79,5.77-1.56l3.31-.86,3.84-1,2.18-.53,3.25-.77c1.54-.36,3.08-.71,4.63-1.05q1.85-.42,3.72-.81c1-.22,2.07-.44,3.1-.64l1.25-.26,2.3-.46,3.38-.65.56-.1c1.13-.22,2.26-.42,3.4-.62l2.43-.43,3.24-.55.51-.08c1.31-.22,2.62-.43,3.94-.63s2.84-.44,4.27-.64q1.69-.26,3.39-.48c1.36-.19,2.73-.37,4.09-.54s2.83-.36,4.24-.52l.76-.09,3.4-.38,1.27-.14,3.34-.33,1.4-.14,4.25-.38c1.56-.13,3.13-.26,4.7-.37,1.13-.09,2.26-.17,3.4-.24l2-.13,4.08-.23,2.61-.13,2.67-.12c1.39-.06,2.78-.11,4.18-.15l2.79-.08,2.26,0c.55,0,1.09,0,1.64,0q3.81-.08,7.64-.07h1.33l24.75-58.11,57.48-134.92.23-.55,9.9-23.25,5.9-13.84A62.51,62.51,0,0,0,489.45,65.69Z"/><path class="cls-6" d="M235.37,448.65,162,620.91a62.5,62.5,0,0,0,33,82l.82.35a62.51,62.51,0,0,0,82-33l99.83-234.34q-18.63-1.85-37.77-1.86A378.86,378.86,0,0,0,235.37,448.65Z"/></g></g></svg>