<svg xmlns="http://www.w3.org/2000/svg" viewBox="0 0 127.77 1053.55"><defs><style>.cls-1{fill:none;stroke:#303030;stroke-miterlimit:10;stroke-width:6px;}</style></defs><title>Risorsa 2</title><g id="Livello_2" data-name="Livello 2"><g id="Livello_1-2" data-name="Livello 1"><path class="cls-1" d="M32.94,988.82H123.1v30.28H32.94v31.45H4.51V957.38H32.94Z"/><path class="cls-1" d="M123.1,915.57v30.1H4.67v-30.1H49.5V881.44H4.67v-30.1H123.1v30.1H78.44v34.13Z"/><path class="cls-1" d="M51.17,802.33v-48H77.1v48H94.83V750.15H123.1v82.46H4.67V750.15h28.1v52.18Z"/><path class="cls-1" d="M4.67,703.82V656.48c0-28.93,20.91-43.32,41.82-43.32,21.07,0,42,14.55,42,43.16v17.56H123.1v29.94Zm57.21-47.34c.17-18.06-29.44-18.06-29.27,0v17.4H61.88Z"/><path class="cls-1" d="M85.46,564.83v5.35H123.1v30.27H4.67V553.12c0-24.42,11.21-43.33,39-44,21.91,0,34.29,8.86,38.8,23.25l40.65-32.29v37.3ZM59.7,552.62c0-18.91-27.09-18.91-27.09,0v17.56H59.7Z"/><path class="cls-1" d="M43.65,496.25c-27.27,0-40.65-24.42-40.65-49s13.55-49.18,40.65-49.18H84.12c27.1,0,40.65,24.43,40.65,49s-13.55,49.18-40.65,49.18Zm40.47-29.94c8.7,0,12.88-9.7,12.88-19.24S92.66,428,84.12,428H43.65c-9.2,0-13.39,9.86-13.39,19.57,0,9.36,4.69,18.73,13.39,18.73Z"/><path class="cls-1" d="M82.45,362.78c9.54-1.68,13.38-9.54,13.38-16.9S91.32,331.5,84.46,331.5H31.77v26.93H4.67V301.89H84.46c25.76,0,40.31,22.58,40.31,45.16,0,20.41-11.37,40.65-36.46,44Z"/><path class="cls-1" d="M51.17,253.72v-48H77.1v48H94.83V201.54H123.1V284H4.67V201.54h28.1v52.18Z"/><path class="cls-1" d="M98.17,100c19.24,9.87,26.6,27.76,26.6,42.65,0,23.25-13.55,46.67-40.48,46.67H43.48C16.72,189.33,3,165.91,3,142.16,3,127.61,9.19,110,30.26,100.51l9.87,24.42c-14.72,8-11.37,34.46,3.35,34.46H84.29c14.22,0,18.23-26.76,1.84-33.29Z"/><path class="cls-1" d="M32.94,34.45H123.1V64.72H32.94V96.17H4.51V3H32.94Z"/></g></g></svg>