<?xml version="1.0" standalone="no"?>
<!DOCTYPE svg PUBLIC "-//W3C//DTD SVG 20010904//EN"
 "http://www.w3.org/TR/2001/REC-SVG-20010904/DTD/svg10.dtd">
<svg version="1.0" xmlns="http://www.w3.org/2000/svg"
 width="925.000000pt" height="925.000000pt" viewBox="0 0 925.000000 925.000000"
 preserveAspectRatio="xMidYMid meet">
<metadata>
Created by potrace 1.14, written by Peter Selinger 2001-2017
</metadata>
<g transform="translate(0.000000,925.000000) scale(0.100000,-0.100000)"
fill="#000000" stroke="none">
<path d="M9200 8158 c-14 -6 -38 -17 -55 -24 -98 -43 -618 -205 -735 -229 -8
-2 -35 -8 -60 -15 -25 -7 -53 -14 -62 -16 -10 -2 -26 -6 -35 -8 -36 -8 -369
-75 -398 -80 -48 -8 -88 -15 -125 -21 -19 -4 -53 -8 -75 -10 -22 -3 -51 -7
-65 -10 -14 -3 -45 -7 -70 -10 -25 -3 -66 -7 -91 -10 -25 -3 -70 -8 -100 -10
-30 -2 -54 -5 -54 -5 0 -5 -192 -17 -385 -26 -74 -3 -1264 -7 -2645 -9 -1380
-2 -2523 -6 -2540 -9 -16 -3 -46 -7 -65 -10 -66 -9 -219 -42 -250 -53 -8 -3
-19 -7 -25 -9 -49 -13 -141 -46 -152 -55 -7 -6 -13 -8 -13 -5 0 4 -12 1 -27
-8 -16 -8 -57 -28 -93 -45 -83 -40 -197 -104 -235 -133 -5 -4 -41 -31 -80 -60
-119 -89 -228 -194 -325 -313 -86 -105 -120 -151 -120 -163 0 -6 -4 -12 -8
-14 -18 -7 -128 -215 -182 -343 -8 -19 -36 -105 -45 -135 -2 -8 -9 -31 -15
-50 -11 -36 -28 -108 -35 -147 -13 -83 -18 -110 -22 -128 -2 -11 -6 -91 -9
-178 l-4 -159 42 40 c36 34 125 109 211 178 9 8 21 14 26 14 5 0 11 4 13 9 4
10 179 124 263 171 88 49 222 115 285 140 65 26 211 81 225 84 6 2 30 9 55 16
25 7 50 14 55 16 6 1 38 10 73 19 35 9 75 18 90 20 15 2 27 4 27 5 0 2 25 7
95 19 105 17 136 22 182 27 23 3 451 7 949 9 835 2 973 -1 922 -22 -7 -2 -13
-8 -13 -13 0 -6 -121 -294 -223 -530 -5 -14 -11 -27 -12 -30 -4 -10 -25 -62
-44 -103 -47 -106 -112 -267 -109 -271 2 -2 -5 -12 -14 -23 -10 -10 -19 -28
-21 -39 -2 -10 -10 -35 -19 -54 -9 -19 -58 -132 -108 -250 -50 -118 -104 -243
-121 -277 -16 -35 -29 -69 -29 -77 0 -8 -5 -18 -10 -21 -6 -4 -8 -11 -5 -16 4
-5 2 -9 -3 -9 -6 0 -13 -12 -17 -27 -3 -15 -16 -48 -28 -73 -11 -25 -22 -47
-22 -50 -1 -3 -6 -16 -12 -30 -6 -14 -30 -70 -53 -125 -23 -55 -53 -124 -66
-153 -13 -29 -24 -55 -24 -58 0 -3 -9 -26 -21 -52 -35 -79 -46 -103 -94 -217
-55 -127 -74 -172 -85 -200 -43 -100 -52 -123 -60 -140 -42 -97 -65 -151 -65
-155 -1 -3 -10 -25 -21 -50 -11 -25 -56 -128 -99 -230 -42 -102 -88 -208 -101
-237 -13 -28 -24 -54 -24 -56 0 -3 -12 -31 -27 -63 -15 -33 -27 -61 -28 -64
-2 -6 -10 -25 -65 -157 -39 -92 -48 -114 -84 -195 -49 -110 -146 -347 -146
-356 0 -6 -4 -12 -8 -14 -4 -2 -19 -34 -31 -73 -30 -88 -38 -258 -17 -329 8
-25 12 -46 10 -46 -8 0 49 -118 83 -170 169 -260 526 -353 808 -210 138 70
252 200 311 355 15 39 115 276 144 340 12 28 27 61 32 75 6 14 17 37 24 52 8
14 14 30 14 36 0 5 12 36 27 68 15 33 28 61 29 64 0 3 6 19 13 35 7 17 12 31
12 32 0 2 8 19 19 38 11 20 20 40 20 45 0 5 11 33 24 62 28 59 59 130 60 138
2 6 212 500 237 555 10 22 30 69 44 105 15 36 35 83 45 105 16 37 109 259 132
315 6 14 14 32 19 40 5 8 11 21 14 28 6 14 17 44 20 52 1 3 10 23 20 45 10 22
18 46 18 53 0 12 12 17 32 12 6 -1 30 -4 55 -6 40 -4 149 -20 205 -30 11 -2
36 -7 55 -10 19 -4 44 -9 55 -11 24 -6 93 -21 120 -27 19 -4 69 -17 190 -51
44 -12 204 -66 245 -82 8 -3 20 -7 25 -9 13 -3 135 -55 200 -85 28 -12 52 -23
55 -24 11 -2 210 -106 270 -140 36 -21 75 -43 87 -49 13 -6 23 -14 23 -18 0
-5 5 -8 11 -8 14 0 284 -184 309 -210 3 -3 30 -25 60 -48 225 -178 486 -448
670 -697 76 -102 200 -289 200 -301 0 -4 6 -15 14 -23 24 -28 136 -238 188
-356 15 -33 37 -82 49 -110 12 -27 23 -55 25 -62 8 -41 128 -186 190 -230 32
-23 147 -88 151 -85 3 2 13 -1 63 -18 19 -6 78 -13 130 -16 151 -6 280 32 396
117 61 45 144 136 170 187 11 20 24 40 29 44 6 4 7 8 3 8 -4 0 2 20 13 44 45
103 53 263 20 385 -11 37 -55 153 -94 241 -5 14 -11 27 -12 30 -5 14 -18 47
-25 65 -5 11 -19 45 -30 75 -12 30 -26 64 -31 75 -15 36 -55 136 -159 395 -56
140 -110 273 -120 295 -40 90 -170 422 -170 433 0 7 -4 12 -10 12 -5 0 -10 7
-10 16 0 9 -6 30 -14 47 -8 18 -26 61 -41 97 -14 36 -30 75 -35 88 -6 12 -14
33 -20 47 -5 14 -14 36 -20 50 -5 14 -14 36 -20 50 -5 14 -14 35 -19 48 -6 12
-20 47 -32 77 -12 30 -27 69 -34 85 -8 17 -27 64 -43 105 -16 41 -33 84 -37
95 -5 11 -7 23 -7 28 1 4 -3 7 -8 7 -6 0 -10 6 -10 14 0 13 -39 112 -76 193
-8 17 -14 34 -14 38 0 6 -7 23 -45 110 -7 17 -25 62 -40 100 -15 39 -34 84
-41 100 -7 17 -27 66 -44 110 -42 106 -347 860 -383 945 -5 14 -11 30 -13 35
-4 14 -82 202 -100 242 -7 17 -14 34 -14 38 0 3 -9 27 -21 52 -11 25 -22 54
-24 64 -2 11 -7 24 -10 29 -4 7 14 10 52 10 100 -1 291 11 393 25 86 12 107
15 130 20 14 3 50 9 80 15 30 6 66 13 80 16 14 3 34 7 45 9 11 3 54 14 95 25
41 11 84 23 94 25 34 8 210 67 241 81 17 7 55 23 85 34 30 12 68 26 84 33 47
19 320 158 326 165 3 4 23 16 45 27 38 19 285 181 295 194 3 3 30 25 61 48 31
23 62 47 70 55 8 7 44 37 79 67 65 55 249 236 326 321 63 70 196 241 250 322
27 40 51 75 54 78 9 8 88 144 96 163 7 19 7 19 -26 5z m-4300 -1750 c1 -7 9
-31 20 -53 11 -22 19 -44 20 -48 0 -4 9 -27 19 -50 10 -23 69 -168 131 -322
62 -154 115 -284 118 -290 4 -5 7 -12 7 -15 0 -5 36 -95 65 -165 9 -22 25 -60
35 -85 10 -25 28 -69 41 -98 13 -29 24 -56 24 -60 0 -7 54 -141 79 -197 5 -11
23 -54 39 -95 42 -107 112 -280 127 -315 7 -16 41 -100 75 -185 34 -85 68
-169 77 -187 8 -17 15 -37 17 -45 1 -7 4 -17 7 -23 12 -20 19 -46 11 -42 -102
53 -506 193 -638 222 -11 2 -66 15 -123 30 -57 14 -110 24 -116 21 -7 -2 -16
-1 -21 4 -5 4 -28 11 -52 14 -24 3 -46 7 -50 10 -4 2 -36 7 -71 10 -36 4 -67
9 -70 10 -3 2 -37 7 -75 11 -38 3 -85 8 -105 11 -20 2 -70 7 -111 10 -64 5
-112 7 -297 13 l-21 1 24 50 c13 28 40 90 60 138 19 48 45 107 56 132 19 42
39 89 43 100 5 14 128 305 180 425 34 78 141 329 215 505 45 107 93 219 106
248 13 29 24 55 24 57 0 2 11 28 24 57 13 29 39 88 57 131 30 71 49 95 49 65z"/>
</g>
</svg>
